<?xml version="1.0" encoding="UTF-8" standalone="no"?>
<!-- Created with Inkscape (http://www.inkscape.org/) -->

<svg
   version="1.1"
   id="svg4137"
   xml:space="preserve"
   width="682.66669"
   height="682.66669"
   viewBox="0 0 682.66669 682.66669"
   xmlns="http://www.w3.org/2000/svg"
   xmlns:svg="http://www.w3.org/2000/svg"><defs
     id="defs4141"><clipPath
       clipPathUnits="userSpaceOnUse"
       id="clipPath4151"><path
         d="M 0,512 H 512 V 0 H 0 Z"
         id="path4149" /></clipPath></defs><g
     id="g4143"
     transform="matrix(1.3333333,0,0,-1.3333333,0,682.66667)"><g
       id="g4145"><g
         id="g4147"
         clip-path="url(#clipPath4151)"><g
           id="g4153"
           transform="translate(482,171.0417)"><path
             d="m 0,0 v -134.042 c 0,-14.911 -12.088,-27 -27,-27 h -398"
             style="fill:none;stroke:#000000;stroke-width:20;stroke-linecap:round;stroke-linejoin:round;stroke-miterlimit:10;stroke-dasharray:none;stroke-opacity:1"
             id="path4155" /></g><g
           id="g4157"
           transform="translate(84,61)"><path
             d="M 0,0 V 441 H 398 V 200.042"
             style="fill:none;stroke:#000000;stroke-width:20;stroke-linecap:round;stroke-linejoin:round;stroke-miterlimit:10;stroke-dasharray:none;stroke-opacity:1"
             id="path4159" /></g><g
           id="g4161"
           transform="translate(57,10)"><path
             d="M 0,0 V 0 C 14.912,0 27,12.088 27,27 V 406 H -27 V 27 C -27,12.088 -14.912,0 0,0 Z"
             style="fill:none;stroke:#000000;stroke-width:20;stroke-linecap:round;stroke-linejoin:round;stroke-miterlimit:10;stroke-dasharray:none;stroke-opacity:1"
             id="path4163" /></g><g
           id="g4165"
           transform="translate(129.05,372.981)"><path
             d="M 0,0 V 67.873 L 45.888,1.424 C 46.739,0.194 47.65,0.797 47.65,2.292 V 68"
             style="fill:none;stroke:#000000;stroke-width:20;stroke-linecap:round;stroke-linejoin:round;stroke-miterlimit:10;stroke-dasharray:none;stroke-opacity:1"
             id="path4167" /></g><g
           id="g4169"
           transform="translate(245.3528,440.981)"><path
             d="M 0,0 H -28.652 V -68 H 0"
             style="fill:none;stroke:#000000;stroke-width:20;stroke-linecap:round;stroke-linejoin:round;stroke-miterlimit:10;stroke-dasharray:none;stroke-opacity:1"
             id="path4171" /></g><g
           id="g4173"
           transform="translate(243.2402,406.9809)"><path
             d="M 0,0 H -26.54"
             style="fill:none;stroke:#000000;stroke-width:20;stroke-linecap:round;stroke-linejoin:round;stroke-miterlimit:10;stroke-dasharray:none;stroke-opacity:1"
             id="path4175" /></g><g
           id="g4177"
           transform="translate(434.7028,433.9905)"><path
             d="m 0,0 c 0,0 -12.202,10.257 -26.591,5.922 -13.212,-3.98 -15.06,-19.214 -5.501,-25.446 0,0 9.379,-4.184 19.782,-8.022 25.042,-9.237 14.255,-33.464 -5.904,-33.464 -10.096,0 -18.569,4.421 -23.697,10.08"
             style="fill:none;stroke:#000000;stroke-width:20;stroke-linecap:round;stroke-linejoin:round;stroke-miterlimit:10;stroke-dasharray:none;stroke-opacity:1"
             id="path4179" /></g><g
           id="g4181"
           transform="translate(283.2402,440.981)"><path
             d="m 0,0 13.15,-66.979 c 0.484,-1.371 2.413,-1.358 2.878,0.02 l 20.534,66.834"
             style="fill:none;stroke:#000000;stroke-width:20;stroke-linecap:round;stroke-linejoin:round;stroke-miterlimit:10;stroke-dasharray:none;stroke-opacity:1"
             id="path4183" /></g><g
           id="g4185"
           transform="translate(319.8018,440.981)"><path
             d="m 0,0 20.481,-66.979 c 0.483,-1.371 2.413,-1.358 2.878,0.02 l 13.203,66.834"
             style="fill:none;stroke:#000000;stroke-width:20;stroke-linecap:round;stroke-linejoin:round;stroke-miterlimit:10;stroke-dasharray:none;stroke-opacity:1"
             id="path4187" /></g><path
           d="M 297,120.042 H 129 v 192 h 168 z"
           style="fill:none;stroke:#000000;stroke-width:20;stroke-linecap:round;stroke-linejoin:round;stroke-miterlimit:10;stroke-dasharray:none;stroke-opacity:1"
           id="path4189" /><g
           id="g4191"
           transform="translate(347,120.0417)"><path
             d="M 0,0 H 90"
             style="fill:none;stroke:#000000;stroke-width:20;stroke-linecap:round;stroke-linejoin:round;stroke-miterlimit:10;stroke-dasharray:none;stroke-opacity:1"
             id="path4193" /></g><g
           id="g4195"
           transform="translate(347,264.0417)"><path
             d="M 0,0 H 90"
             style="fill:none;stroke:#000000;stroke-width:20;stroke-linecap:round;stroke-linejoin:round;stroke-miterlimit:10;stroke-dasharray:none;stroke-opacity:1"
             id="path4197" /></g><g
           id="g4199"
           transform="translate(347,216.0417)"><path
             d="M 0,0 H 90"
             style="fill:none;stroke:#000000;stroke-width:20;stroke-linecap:round;stroke-linejoin:round;stroke-miterlimit:10;stroke-dasharray:none;stroke-opacity:1"
             id="path4201" /></g><g
           id="g4203"
           transform="translate(347,312.0417)"><path
             d="M 0,0 H 90"
             style="fill:none;stroke:#000000;stroke-width:20;stroke-linecap:round;stroke-linejoin:round;stroke-miterlimit:10;stroke-dasharray:none;stroke-opacity:1"
             id="path4205" /></g><g
           id="g4207"
           transform="translate(347,168.0417)"><path
             d="M 0,0 H 90"
             style="fill:none;stroke:#000000;stroke-width:20;stroke-linecap:round;stroke-linejoin:round;stroke-miterlimit:10;stroke-dasharray:none;stroke-opacity:1"
             id="path4209" /></g><g
           id="g4211"
           transform="translate(129,64)"><path
             d="M 0,0 H 308"
             style="fill:none;stroke:#000000;stroke-width:20;stroke-linecap:round;stroke-linejoin:round;stroke-miterlimit:10;stroke-dasharray:none;stroke-opacity:1"
             id="path4213" /></g><g
           id="g4215"
           transform="translate(130.2824,202.6677)"><path
             d="M 0,0 38.209,38.209 155.735,-79.317"
             style="fill:none;stroke:#000000;stroke-width:20;stroke-linecap:round;stroke-linejoin:round;stroke-miterlimit:10;stroke-dasharray:none;stroke-opacity:1"
             id="path4217" /></g><g
           id="g4219"
           transform="translate(196.573,212.7941)"><path
             d="M 0,0 54.636,54.636 99.065,10.206"
             style="fill:none;stroke:#000000;stroke-width:20;stroke-linecap:round;stroke-linejoin:round;stroke-miterlimit:10;stroke-dasharray:none;stroke-opacity:1"
             id="path4221" /></g><g
           id="g4223"
           transform="translate(482,216.0417)"><path
             d="M 0,0 V 0"
             style="fill:none;stroke:#000000;stroke-width:20;stroke-linecap:round;stroke-linejoin:round;stroke-miterlimit:10;stroke-dasharray:none;stroke-opacity:1"
             id="path4225" /></g></g></g></g></svg>
