<svg id="Layer_2_00000147195025147511887520000018289808804878046118_" enable-background="new 0 0 512 512" height="512" viewBox="0 0 512 512" width="512" xmlns="http://www.w3.org/2000/svg"><g id="Icon"><g id="UserSearch"><path d="m360.2 467.2h-312.8c-27.1 0-46.4-26.4-38.1-52.2l32.9-102.8c10.6-33 46.7-50.1 78.9-37.6 21.4 8.3 48.9 14.8 82.6 14.8 29.9 0 54.9-5.1 75.2-12.1 3.2 22.6 13.5 44.5 30.9 61.8 19.9 19.9 46.2 31.2 74.3 32l14.1 43.9c8.3 25.8-10.9 52.2-38 52.2z"/><circle cx="203.8" cy="147.9" r="103.1"/><path d="m499.4 348.7-37.6-37.6c23-34.7 19.2-82-11.3-112.5-34.9-34.9-91.6-34.9-126.4 0-34.9 34.9-34.9 91.6 0 126.4 30.6 30.6 77.9 34.3 112.6 11.3l37.6 37.6c6.9 6.9 18.2 6.9 25.1 0s6.9-18.2 0-25.2zm-150.3-48.8c-21-21-21-55.1 0-76.2s55.1-21 76.2 0 21 55.1 0 76.1c-21 21.1-55.1 21.1-76.2.1z"/></g></g></svg>